<svg width="512" height="512" viewBox="0 0 512 512" fill="none" xmlns="http://www.w3.org/2000/svg">
<rect y="96" width="512" height="320" rx="64" fill="#F2F2F7"/>
<path d="M95.708 165.364V307.24H163.748L159.464 340H54.38V165.364H95.708ZM296.786 301.192C296.786 306.232 297.458 309.928 298.802 312.28C300.314 314.632 302.666 316.396 305.858 317.572L297.542 343.528C289.31 342.856 282.59 341.092 277.382 338.236C272.174 335.212 268.142 330.508 265.286 324.124C256.55 337.564 243.11 344.284 224.966 344.284C211.694 344.284 201.11 340.42 193.214 332.692C185.318 324.964 181.37 314.884 181.37 302.452C181.37 287.836 186.746 276.664 197.498 268.936C208.25 261.208 223.79 257.344 244.118 257.344H257.726V251.548C257.726 243.652 256.046 238.276 252.686 235.42C249.326 232.396 243.446 230.884 235.046 230.884C230.678 230.884 225.386 231.556 219.17 232.9C212.954 234.076 206.57 235.756 200.018 237.94L190.946 211.732C199.346 208.54 207.914 206.104 216.65 204.424C225.554 202.744 233.786 201.904 241.346 201.904C260.498 201.904 274.526 205.852 283.43 213.748C292.334 221.644 296.786 233.488 296.786 249.28V301.192ZM236.558 315.808C245.63 315.808 252.686 311.524 257.726 302.956V279.268H247.898C238.826 279.268 232.022 280.864 227.486 284.056C223.118 287.248 220.934 292.204 220.934 298.924C220.934 304.3 222.278 308.5 224.966 311.524C227.822 314.38 231.686 315.808 236.558 315.808ZM414.433 201.904C430.393 201.904 442.657 208.204 451.225 220.804C459.793 233.236 464.077 250.708 464.077 273.22C464.077 286.996 461.893 299.26 457.525 310.012C453.325 320.764 447.193 329.164 439.129 335.212C431.233 341.26 421.825 344.284 410.905 344.284C403.681 344.284 397.045 342.772 390.997 339.748C385.117 336.724 380.077 332.524 375.877 327.148L373.861 340H338.581V153.016L378.397 148.732V219.796C382.429 214.252 387.553 209.884 393.769 206.692C400.153 203.5 407.041 201.904 414.433 201.904ZM399.313 315.304C414.937 315.304 422.749 301.276 422.749 273.22C422.749 257.26 420.901 246.256 417.205 240.208C413.509 234.16 408.133 231.136 401.077 231.136C392.173 231.136 384.613 236.344 378.397 246.76V302.452C380.917 306.484 383.941 309.676 387.469 312.028C391.165 314.212 395.113 315.304 399.313 315.304Z" fill="black"/>
</svg>
