<svg width="512" height="512" fill="none" xmlns="http://www.w3.org/2000/svg">
  <style>
    rect {
      fill: #000
    }
    path {
      fill: #fff
    }

    @media (prefers-color-scheme: dark) {
      rect {
          fill: #F2F2F7;
      }
      path {
        fill: #000;
      }
    }
  </style>
  <rect y="96" width="512" height="320" rx="64"/>
  <path
    d="M95.708 165.364V307.24h68.04L159.464 340H54.38V165.364h41.328zm201.078 135.828c0 5.04.672 8.736 2.016 11.088 1.512 2.352 3.864 4.116 7.056 5.292l-8.316 25.956c-8.232-.672-14.952-2.436-20.16-5.292-5.208-3.024-9.24-7.728-12.096-14.112-8.736 13.44-22.176 20.16-40.32 20.16-13.272 0-23.856-3.864-31.752-11.592-7.896-7.728-11.844-17.808-11.844-30.24 0-14.616 5.376-25.788 16.128-33.516 10.752-7.728 26.292-11.592 46.62-11.592h13.608v-5.796c0-7.896-1.68-13.272-5.04-16.128-3.36-3.024-9.24-4.536-17.64-4.536-4.368 0-9.66.672-15.876 2.016-6.216 1.176-12.6 2.856-19.152 5.04l-9.072-26.208c8.4-3.192 16.968-5.628 25.704-7.308 8.904-1.68 17.136-2.52 24.696-2.52 19.152 0 33.18 3.948 42.084 11.844 8.904 7.896 13.356 19.74 13.356 35.532v51.912zm-60.228 14.616c9.072 0 16.128-4.284 21.168-12.852v-23.688h-9.828c-9.072 0-15.876 1.596-20.412 4.788-4.368 3.192-6.552 8.148-6.552 14.868 0 5.376 1.344 9.576 4.032 12.6 2.856 2.856 6.72 4.284 11.592 4.284zm177.875-113.904c15.96 0 28.224 6.3 36.792 18.9 8.568 12.432 12.852 29.904 12.852 52.416 0 13.776-2.184 26.04-6.552 36.792-4.2 10.752-10.332 19.152-18.396 25.2-7.896 6.048-17.304 9.072-28.224 9.072-7.224 0-13.86-1.512-19.908-4.536-5.88-3.024-10.92-7.224-15.12-12.6L373.861 340h-35.28V153.016l39.816-4.284v71.064c4.032-5.544 9.156-9.912 15.372-13.104 6.384-3.192 13.272-4.788 20.664-4.788zm-15.12 113.4c15.624 0 23.436-14.028 23.436-42.084 0-15.96-1.848-26.964-5.544-33.012-3.696-6.048-9.072-9.072-16.128-9.072-8.904 0-16.464 5.208-22.68 15.624v55.692c2.52 4.032 5.544 7.224 9.072 9.576 3.696 2.184 7.644 3.276 11.844 3.276z"
  />
</svg>
